<mxfile host="app.diagrams.net" agent="Mozilla/5.0 (Windows NT 10.0; Win64; x64) AppleWebKit/537.36 (KHTML, like Gecko) Chrome/128.0.0.0 YaBrowser/24.10.0.0 Safari/537.36" version="24.8.6">
  <diagram name="Страница — 1" id="FPn8PQMjZezJORf90g8G">
    <mxGraphModel dx="1631" dy="931" grid="0" gridSize="10" guides="1" tooltips="1" connect="1" arrows="1" fold="1" page="1" pageScale="1" pageWidth="827" pageHeight="1169" math="0" shadow="0">
      <root>
        <mxCell id="0" />
        <mxCell id="1" parent="0" />
        <mxCell id="SVWc-BDC9M8u-CrUImWu-43" value="" style="ellipse;html=1;shape=startState;fillColor=#000000;strokeColor=#ff0000;" vertex="1" parent="1">
          <mxGeometry x="165" y="180" width="30" height="30" as="geometry" />
        </mxCell>
        <mxCell id="SVWc-BDC9M8u-CrUImWu-44" value="" style="edgeStyle=orthogonalEdgeStyle;html=1;verticalAlign=bottom;endArrow=open;endSize=8;strokeColor=#ff0000;rounded=0;" edge="1" source="SVWc-BDC9M8u-CrUImWu-43" parent="1">
          <mxGeometry relative="1" as="geometry">
            <mxPoint x="180" y="270" as="targetPoint" />
          </mxGeometry>
        </mxCell>
        <mxCell id="SVWc-BDC9M8u-CrUImWu-45" value="" style="ellipse;html=1;shape=endState;fillColor=#000000;strokeColor=#ff0000;" vertex="1" parent="1">
          <mxGeometry x="100" y="555" width="30" height="30" as="geometry" />
        </mxCell>
        <mxCell id="SVWc-BDC9M8u-CrUImWu-50" value="Подача заявки" style="swimlane;fontStyle=1;align=center;verticalAlign=middle;childLayout=stackLayout;horizontal=1;startSize=30;horizontalStack=0;resizeParent=0;resizeLast=1;container=0;fontColor=#000000;collapsible=0;rounded=1;arcSize=33;strokeColor=#ff0000;fillColor=#ffffc0;swimlaneFillColor=#ffffc0;dropTarget=0;" vertex="1" parent="1">
          <mxGeometry x="65" y="270" width="230" height="80" as="geometry" />
        </mxCell>
        <mxCell id="SVWc-BDC9M8u-CrUImWu-51" value="&lt;span style=&quot;text-align: left;&quot;&gt;/entry: Открытие формы заявки&lt;/span&gt;&lt;div&gt;&lt;span style=&quot;text-align: left;&quot;&gt;/do: Заполнение данных клиентом&lt;/span&gt;&lt;span style=&quot;text-align: left;&quot;&gt;&lt;br&gt;&lt;/span&gt;&lt;/div&gt;&lt;div&gt;&lt;span style=&quot;text-align: left;&quot;&gt;/exit: Отправка заявки&lt;/span&gt;&lt;span style=&quot;text-align: left;&quot;&gt;&lt;br&gt;&lt;/span&gt;&lt;/div&gt;" style="text;html=1;strokeColor=none;fillColor=none;align=center;verticalAlign=middle;spacingLeft=4;spacingRight=4;whiteSpace=wrap;overflow=hidden;rotatable=0;fontColor=#000000;" vertex="1" parent="SVWc-BDC9M8u-CrUImWu-50">
          <mxGeometry y="30" width="230" height="50" as="geometry" />
        </mxCell>
        <mxCell id="SVWc-BDC9M8u-CrUImWu-52" value="" style="edgeStyle=orthogonalEdgeStyle;html=1;verticalAlign=bottom;endArrow=open;endSize=8;strokeColor=#ff0000;rounded=0;exitX=1;exitY=0.25;exitDx=0;exitDy=0;entryX=0;entryY=0.25;entryDx=0;entryDy=0;" edge="1" source="SVWc-BDC9M8u-CrUImWu-51" parent="1" target="SVWc-BDC9M8u-CrUImWu-55">
          <mxGeometry relative="1" as="geometry">
            <mxPoint x="280" y="530" as="targetPoint" />
          </mxGeometry>
        </mxCell>
        <mxCell id="SVWc-BDC9M8u-CrUImWu-54" value="Обработка заявки" style="swimlane;fontStyle=1;align=center;verticalAlign=middle;childLayout=stackLayout;horizontal=1;startSize=30;horizontalStack=0;resizeParent=0;resizeLast=1;container=0;fontColor=#000000;collapsible=0;rounded=1;arcSize=33;strokeColor=#ff0000;fillColor=#ffffc0;swimlaneFillColor=#ffffc0;dropTarget=0;" vertex="1" parent="1">
          <mxGeometry x="375" y="270" width="230" height="80" as="geometry" />
        </mxCell>
        <mxCell id="SVWc-BDC9M8u-CrUImWu-55" value="&lt;div&gt;&lt;span style=&quot;text-align: left;&quot;&gt;/entry: Заявка добавлена в очередь&lt;/span&gt;&lt;span style=&quot;text-align: left;&quot;&gt;&lt;br&gt;&lt;/span&gt;&lt;/div&gt;&lt;div&gt;&lt;span style=&quot;text-align: left;&quot;&gt;/do: Проверка материалов у условий публикации&lt;/span&gt;&lt;span style=&quot;text-align: left;&quot;&gt;&lt;br&gt;&lt;/span&gt;&lt;/div&gt;" style="text;html=1;strokeColor=none;fillColor=none;align=center;verticalAlign=middle;spacingLeft=4;spacingRight=4;whiteSpace=wrap;overflow=hidden;rotatable=0;fontColor=#000000;" vertex="1" parent="SVWc-BDC9M8u-CrUImWu-54">
          <mxGeometry y="30" width="230" height="50" as="geometry" />
        </mxCell>
        <mxCell id="SVWc-BDC9M8u-CrUImWu-56" value="Проверка материалов" style="swimlane;fontStyle=1;align=center;verticalAlign=middle;childLayout=stackLayout;horizontal=1;startSize=30;horizontalStack=0;resizeParent=0;resizeLast=1;container=0;fontColor=#000000;collapsible=0;rounded=1;arcSize=33;strokeColor=#ff0000;fillColor=#ffffc0;swimlaneFillColor=#ffffc0;dropTarget=0;" vertex="1" parent="1">
          <mxGeometry x="650" y="402" width="150" height="58" as="geometry" />
        </mxCell>
        <mxCell id="SVWc-BDC9M8u-CrUImWu-57" value="&lt;div&gt;&lt;span style=&quot;text-align: left;&quot;&gt;/do: Сравнение с базой&lt;/span&gt;&lt;br&gt;&lt;/div&gt;" style="text;html=1;strokeColor=none;fillColor=none;align=center;verticalAlign=middle;spacingLeft=4;spacingRight=4;whiteSpace=wrap;overflow=hidden;rotatable=0;fontColor=#000000;" vertex="1" parent="SVWc-BDC9M8u-CrUImWu-56">
          <mxGeometry y="30" width="150" height="28" as="geometry" />
        </mxCell>
        <mxCell id="SVWc-BDC9M8u-CrUImWu-58" value="Проверка условий публикации" style="swimlane;fontStyle=1;align=center;verticalAlign=middle;childLayout=stackLayout;horizontal=1;startSize=30;horizontalStack=0;resizeParent=0;resizeLast=1;container=0;fontColor=#000000;collapsible=0;rounded=1;arcSize=33;strokeColor=#ff0000;fillColor=#ffffc0;swimlaneFillColor=#ffffc0;dropTarget=0;" vertex="1" parent="1">
          <mxGeometry x="375" y="402" width="230" height="58" as="geometry" />
        </mxCell>
        <mxCell id="SVWc-BDC9M8u-CrUImWu-59" value="&lt;div&gt;&lt;span style=&quot;text-align: left;&quot;&gt;/do: Оценка допустимости публикации&lt;/span&gt;&lt;br&gt;&lt;/div&gt;" style="text;html=1;strokeColor=none;fillColor=none;align=center;verticalAlign=middle;spacingLeft=4;spacingRight=4;whiteSpace=wrap;overflow=hidden;rotatable=0;fontColor=#000000;" vertex="1" parent="SVWc-BDC9M8u-CrUImWu-58">
          <mxGeometry y="30" width="230" height="28" as="geometry" />
        </mxCell>
        <mxCell id="SVWc-BDC9M8u-CrUImWu-62" value="Результат проверки" style="swimlane;fontStyle=1;align=center;verticalAlign=middle;childLayout=stackLayout;horizontal=1;startSize=30;horizontalStack=0;resizeParent=0;resizeLast=1;container=0;fontColor=#000000;collapsible=0;rounded=1;arcSize=33;strokeColor=#ff0000;fillColor=#ffffc0;swimlaneFillColor=#ffffc0;dropTarget=0;" vertex="1" parent="1">
          <mxGeometry x="530" y="540" width="160" height="60" as="geometry" />
        </mxCell>
        <mxCell id="SVWc-BDC9M8u-CrUImWu-63" value="&lt;div&gt;&lt;span style=&quot;text-align: left;&quot;&gt;/entry: Оценка результата&lt;/span&gt;&lt;br&gt;&lt;/div&gt;" style="text;html=1;strokeColor=none;fillColor=none;align=center;verticalAlign=middle;spacingLeft=4;spacingRight=4;whiteSpace=wrap;overflow=hidden;rotatable=0;fontColor=#000000;" vertex="1" parent="SVWc-BDC9M8u-CrUImWu-62">
          <mxGeometry y="30" width="160" height="30" as="geometry" />
        </mxCell>
        <mxCell id="SVWc-BDC9M8u-CrUImWu-65" value="Заявка отклонена" style="swimlane;fontStyle=1;align=center;verticalAlign=middle;childLayout=stackLayout;horizontal=1;startSize=30;horizontalStack=0;resizeParent=0;resizeLast=1;container=0;fontColor=#000000;collapsible=0;rounded=1;arcSize=33;strokeColor=#ff0000;fillColor=#ffffc0;swimlaneFillColor=#ffffc0;dropTarget=0;" vertex="1" parent="1">
          <mxGeometry x="184" y="540" width="230" height="70" as="geometry" />
        </mxCell>
        <mxCell id="SVWc-BDC9M8u-CrUImWu-66" value="&lt;div&gt;&lt;span style=&quot;text-align: left;&quot;&gt;/entry: Уведомление клиента&lt;/span&gt;&lt;br&gt;&lt;/div&gt;&lt;div&gt;&lt;span style=&quot;text-align: left;&quot;&gt;/exit: Завершение обработки&lt;/span&gt;&lt;span style=&quot;text-align: left;&quot;&gt;&lt;br&gt;&lt;/span&gt;&lt;/div&gt;" style="text;html=1;strokeColor=none;fillColor=none;align=center;verticalAlign=middle;spacingLeft=4;spacingRight=4;whiteSpace=wrap;overflow=hidden;rotatable=0;fontColor=#000000;" vertex="1" parent="SVWc-BDC9M8u-CrUImWu-65">
          <mxGeometry y="30" width="230" height="40" as="geometry" />
        </mxCell>
        <mxCell id="SVWc-BDC9M8u-CrUImWu-67" value="" style="edgeStyle=orthogonalEdgeStyle;html=1;verticalAlign=bottom;endArrow=open;endSize=8;strokeColor=#ff0000;rounded=0;exitX=0.5;exitY=1;exitDx=0;exitDy=0;entryX=0.5;entryY=0;entryDx=0;entryDy=0;" edge="1" parent="1" source="SVWc-BDC9M8u-CrUImWu-55" target="SVWc-BDC9M8u-CrUImWu-58">
          <mxGeometry relative="1" as="geometry">
            <mxPoint x="580" y="370" as="targetPoint" />
            <mxPoint x="500" y="370" as="sourcePoint" />
            <Array as="points">
              <mxPoint x="490" y="370" />
              <mxPoint x="490" y="370" />
            </Array>
          </mxGeometry>
        </mxCell>
        <mxCell id="SVWc-BDC9M8u-CrUImWu-68" value="" style="edgeStyle=orthogonalEdgeStyle;html=1;verticalAlign=bottom;endArrow=open;endSize=8;strokeColor=#ff0000;rounded=0;exitX=1;exitY=0.25;exitDx=0;exitDy=0;entryX=0.541;entryY=0.014;entryDx=0;entryDy=0;entryPerimeter=0;" edge="1" parent="1" target="SVWc-BDC9M8u-CrUImWu-56">
          <mxGeometry relative="1" as="geometry">
            <mxPoint x="685" y="309.58" as="targetPoint" />
            <mxPoint x="605" y="309.58" as="sourcePoint" />
          </mxGeometry>
        </mxCell>
        <mxCell id="SVWc-BDC9M8u-CrUImWu-74" value="" style="shape=line;html=1;strokeWidth=6;strokeColor=#ff0000;" vertex="1" parent="1">
          <mxGeometry x="510" y="490" width="200" height="10" as="geometry" />
        </mxCell>
        <mxCell id="SVWc-BDC9M8u-CrUImWu-75" value="" style="edgeStyle=orthogonalEdgeStyle;html=1;verticalAlign=bottom;endArrow=open;endSize=8;strokeColor=#ff0000;rounded=0;entryX=0.5;entryY=0;entryDx=0;entryDy=0;" edge="1" source="SVWc-BDC9M8u-CrUImWu-74" parent="1" target="SVWc-BDC9M8u-CrUImWu-62">
          <mxGeometry relative="1" as="geometry">
            <mxPoint x="610" y="540" as="targetPoint" />
          </mxGeometry>
        </mxCell>
        <mxCell id="SVWc-BDC9M8u-CrUImWu-79" value="" style="edgeStyle=orthogonalEdgeStyle;html=1;verticalAlign=bottom;endArrow=open;endSize=8;strokeColor=#ff0000;rounded=0;exitX=0.5;exitY=1;exitDx=0;exitDy=0;entryX=0;entryY=0.5;entryDx=0;entryDy=0;entryPerimeter=0;" edge="1" parent="1" source="SVWc-BDC9M8u-CrUImWu-59" target="SVWc-BDC9M8u-CrUImWu-74">
          <mxGeometry relative="1" as="geometry">
            <mxPoint x="500" y="412" as="targetPoint" />
            <mxPoint x="500" y="360" as="sourcePoint" />
            <Array as="points">
              <mxPoint x="490" y="495" />
            </Array>
          </mxGeometry>
        </mxCell>
        <mxCell id="SVWc-BDC9M8u-CrUImWu-80" value="" style="edgeStyle=orthogonalEdgeStyle;html=1;verticalAlign=bottom;endArrow=open;endSize=8;strokeColor=#ff0000;rounded=0;exitX=0.5;exitY=1;exitDx=0;exitDy=0;entryX=1;entryY=0.5;entryDx=0;entryDy=0;entryPerimeter=0;" edge="1" parent="1" source="SVWc-BDC9M8u-CrUImWu-57" target="SVWc-BDC9M8u-CrUImWu-74">
          <mxGeometry relative="1" as="geometry">
            <mxPoint x="510" y="422" as="targetPoint" />
            <mxPoint x="510" y="370" as="sourcePoint" />
            <Array as="points">
              <mxPoint x="730" y="460" />
              <mxPoint x="730" y="495" />
            </Array>
          </mxGeometry>
        </mxCell>
        <mxCell id="SVWc-BDC9M8u-CrUImWu-81" value="" style="edgeStyle=orthogonalEdgeStyle;html=1;verticalAlign=bottom;endArrow=open;endSize=8;strokeColor=#ff0000;rounded=0;exitX=0;exitY=0.5;exitDx=0;exitDy=0;entryX=1;entryY=0;entryDx=0;entryDy=0;" edge="1" parent="1" source="SVWc-BDC9M8u-CrUImWu-62" target="SVWc-BDC9M8u-CrUImWu-66">
          <mxGeometry relative="1" as="geometry">
            <mxPoint x="520" y="432" as="targetPoint" />
            <mxPoint x="520" y="380" as="sourcePoint" />
            <Array as="points">
              <mxPoint x="530" y="570" />
            </Array>
          </mxGeometry>
        </mxCell>
        <mxCell id="SVWc-BDC9M8u-CrUImWu-82" value="" style="edgeStyle=orthogonalEdgeStyle;html=1;verticalAlign=bottom;endArrow=open;endSize=8;strokeColor=#ff0000;rounded=0;exitX=0;exitY=0;exitDx=0;exitDy=0;entryX=1;entryY=0.5;entryDx=0;entryDy=0;" edge="1" parent="1" source="SVWc-BDC9M8u-CrUImWu-66" target="SVWc-BDC9M8u-CrUImWu-45">
          <mxGeometry relative="1" as="geometry">
            <mxPoint x="290" y="552" as="targetPoint" />
            <mxPoint x="290" y="500" as="sourcePoint" />
            <Array as="points">
              <mxPoint x="150" y="570" />
              <mxPoint x="150" y="570" />
            </Array>
          </mxGeometry>
        </mxCell>
        <mxCell id="SVWc-BDC9M8u-CrUImWu-83" value="Работа над заявкой" style="swimlane;fontStyle=1;align=center;verticalAlign=middle;childLayout=stackLayout;horizontal=1;startSize=30;horizontalStack=0;resizeParent=0;resizeLast=1;container=0;fontColor=#000000;collapsible=0;rounded=1;arcSize=33;strokeColor=#ff0000;fillColor=#ffffc0;swimlaneFillColor=#ffffc0;dropTarget=0;" vertex="1" parent="1">
          <mxGeometry x="495" y="770" width="230" height="70" as="geometry" />
        </mxCell>
        <mxCell id="SVWc-BDC9M8u-CrUImWu-84" value="&lt;div&gt;&lt;div&gt;/entry: Назначение исполнителя&lt;/div&gt;&lt;div&gt;/do: Выполнение задачи&lt;br&gt;&lt;/div&gt;&lt;/div&gt;" style="text;html=1;strokeColor=none;fillColor=none;align=center;verticalAlign=middle;spacingLeft=4;spacingRight=4;whiteSpace=wrap;overflow=hidden;rotatable=0;fontColor=#000000;" vertex="1" parent="SVWc-BDC9M8u-CrUImWu-83">
          <mxGeometry y="30" width="230" height="40" as="geometry" />
        </mxCell>
        <mxCell id="SVWc-BDC9M8u-CrUImWu-85" style="edgeStyle=orthogonalEdgeStyle;rounded=0;orthogonalLoop=1;jettySize=auto;html=1;exitX=0.5;exitY=1;exitDx=0;exitDy=0;" edge="1" parent="SVWc-BDC9M8u-CrUImWu-83" source="SVWc-BDC9M8u-CrUImWu-84" target="SVWc-BDC9M8u-CrUImWu-84">
          <mxGeometry relative="1" as="geometry" />
        </mxCell>
        <mxCell id="SVWc-BDC9M8u-CrUImWu-86" value="Заявка одобрена" style="swimlane;fontStyle=1;align=center;verticalAlign=middle;childLayout=stackLayout;horizontal=1;startSize=30;horizontalStack=0;resizeParent=0;resizeLast=1;container=0;fontColor=#000000;collapsible=0;rounded=1;arcSize=33;strokeColor=#ff0000;fillColor=#ffffc0;swimlaneFillColor=#ffffc0;dropTarget=0;" vertex="1" parent="1">
          <mxGeometry x="495" y="640" width="230" height="90" as="geometry" />
        </mxCell>
        <mxCell id="SVWc-BDC9M8u-CrUImWu-87" value="&lt;div&gt;/entry: Подготовка к выполнению&lt;/div&gt;&lt;div&gt;/do: Формирование задания&lt;/div&gt;&lt;div&gt;/exit: Передача в работу&lt;br&gt;&lt;/div&gt;" style="text;html=1;strokeColor=none;fillColor=none;align=center;verticalAlign=middle;spacingLeft=4;spacingRight=4;whiteSpace=wrap;overflow=hidden;rotatable=0;fontColor=#000000;" vertex="1" parent="SVWc-BDC9M8u-CrUImWu-86">
          <mxGeometry y="30" width="230" height="60" as="geometry" />
        </mxCell>
        <mxCell id="SVWc-BDC9M8u-CrUImWu-88" style="edgeStyle=orthogonalEdgeStyle;rounded=0;orthogonalLoop=1;jettySize=auto;html=1;exitX=0.5;exitY=1;exitDx=0;exitDy=0;" edge="1" parent="SVWc-BDC9M8u-CrUImWu-86" source="SVWc-BDC9M8u-CrUImWu-87" target="SVWc-BDC9M8u-CrUImWu-87">
          <mxGeometry relative="1" as="geometry" />
        </mxCell>
        <mxCell id="SVWc-BDC9M8u-CrUImWu-89" value="" style="edgeStyle=orthogonalEdgeStyle;html=1;verticalAlign=bottom;endArrow=open;endSize=8;strokeColor=#ff0000;rounded=0;exitX=0.5;exitY=1;exitDx=0;exitDy=0;entryX=0.5;entryY=0;entryDx=0;entryDy=0;" edge="1" parent="1" source="SVWc-BDC9M8u-CrUImWu-63" target="SVWc-BDC9M8u-CrUImWu-86">
          <mxGeometry relative="1" as="geometry">
            <mxPoint x="424" y="580" as="targetPoint" />
            <mxPoint x="540" y="580" as="sourcePoint" />
            <Array as="points">
              <mxPoint x="610" y="630" />
              <mxPoint x="610" y="630" />
            </Array>
          </mxGeometry>
        </mxCell>
        <mxCell id="SVWc-BDC9M8u-CrUImWu-91" value="" style="edgeStyle=orthogonalEdgeStyle;html=1;verticalAlign=bottom;endArrow=open;endSize=8;strokeColor=#ff0000;rounded=0;exitX=0.5;exitY=1;exitDx=0;exitDy=0;entryX=0.5;entryY=0;entryDx=0;entryDy=0;" edge="1" parent="1">
          <mxGeometry relative="1" as="geometry">
            <mxPoint x="609.8" y="770" as="targetPoint" />
            <mxPoint x="609.8" y="730" as="sourcePoint" />
            <Array as="points">
              <mxPoint x="609.8" y="760" />
              <mxPoint x="609.8" y="760" />
            </Array>
          </mxGeometry>
        </mxCell>
        <mxCell id="SVWc-BDC9M8u-CrUImWu-92" value="Заявка выполнена" style="swimlane;fontStyle=1;align=center;verticalAlign=middle;childLayout=stackLayout;horizontal=1;startSize=30;horizontalStack=0;resizeParent=0;resizeLast=1;container=0;fontColor=#000000;collapsible=0;rounded=1;arcSize=33;strokeColor=#ff0000;fillColor=#ffffc0;swimlaneFillColor=#ffffc0;dropTarget=0;" vertex="1" parent="1">
          <mxGeometry x="490" y="880" width="230" height="70" as="geometry" />
        </mxCell>
        <mxCell id="SVWc-BDC9M8u-CrUImWu-93" value="&lt;div&gt;&lt;div&gt;/entry: Уведомление клиента&lt;/div&gt;&lt;div&gt;/exit: Закрытие процесса&lt;br&gt;&lt;/div&gt;&lt;/div&gt;" style="text;html=1;strokeColor=none;fillColor=none;align=center;verticalAlign=middle;spacingLeft=4;spacingRight=4;whiteSpace=wrap;overflow=hidden;rotatable=0;fontColor=#000000;" vertex="1" parent="SVWc-BDC9M8u-CrUImWu-92">
          <mxGeometry y="30" width="230" height="40" as="geometry" />
        </mxCell>
        <mxCell id="SVWc-BDC9M8u-CrUImWu-94" style="edgeStyle=orthogonalEdgeStyle;rounded=0;orthogonalLoop=1;jettySize=auto;html=1;exitX=0.5;exitY=1;exitDx=0;exitDy=0;" edge="1" parent="SVWc-BDC9M8u-CrUImWu-92" source="SVWc-BDC9M8u-CrUImWu-93" target="SVWc-BDC9M8u-CrUImWu-93">
          <mxGeometry relative="1" as="geometry" />
        </mxCell>
        <mxCell id="SVWc-BDC9M8u-CrUImWu-95" value="" style="edgeStyle=orthogonalEdgeStyle;html=1;verticalAlign=bottom;endArrow=open;endSize=8;strokeColor=#ff0000;rounded=0;exitX=0.5;exitY=1;exitDx=0;exitDy=0;entryX=0.5;entryY=0;entryDx=0;entryDy=0;" edge="1" parent="1">
          <mxGeometry relative="1" as="geometry">
            <mxPoint x="609.8299999999999" y="880" as="targetPoint" />
            <mxPoint x="609.8299999999999" y="840" as="sourcePoint" />
            <Array as="points">
              <mxPoint x="609.8299999999999" y="870" />
              <mxPoint x="609.8299999999999" y="870" />
            </Array>
          </mxGeometry>
        </mxCell>
        <mxCell id="SVWc-BDC9M8u-CrUImWu-96" value="" style="ellipse;html=1;shape=endState;fillColor=#000000;strokeColor=#ff0000;" vertex="1" parent="1">
          <mxGeometry x="595" y="990" width="30" height="30" as="geometry" />
        </mxCell>
        <mxCell id="SVWc-BDC9M8u-CrUImWu-97" value="" style="edgeStyle=orthogonalEdgeStyle;html=1;verticalAlign=bottom;endArrow=open;endSize=8;strokeColor=#ff0000;rounded=0;exitX=0.5;exitY=1;exitDx=0;exitDy=0;entryX=0.5;entryY=0;entryDx=0;entryDy=0;" edge="1" parent="1">
          <mxGeometry relative="1" as="geometry">
            <mxPoint x="609.8299999999999" y="990" as="targetPoint" />
            <mxPoint x="609.8299999999999" y="950" as="sourcePoint" />
            <Array as="points">
              <mxPoint x="609.8299999999999" y="980" />
              <mxPoint x="609.8299999999999" y="980" />
            </Array>
          </mxGeometry>
        </mxCell>
      </root>
    </mxGraphModel>
  </diagram>
</mxfile>
